<?xml version="1.0" encoding="utf-8"?>
<!-- Generator: Adobe Illustrator 19.0.1, SVG Export Plug-In . SVG Version: 6.00 Build 0)  -->
<svg version="1.1" id="Layer_1" xmlns="http://www.w3.org/2000/svg" xmlns:xlink="http://www.w3.org/1999/xlink" x="0px" y="0px"
	 viewBox="0 0 1041.1 159.2" style="enable-background:new 0 0 1041.1 159.2;" xml:space="preserve">
<style type="text/css">
	.st0{fill:#1CAD7E;}
	.st1{fill:#1A8760;}
</style>
<polygon class="st0" points="47.2,159.2 0,158.8 105,0 152.4,0 "/>
<polygon class="st1" points="178.3,79.3 227.6,0 180.2,0 130.3,79.1 186,159 233.2,158.5 "/>
<g>
	<path class="st0" d="M334.1,159.6c-46.1,0-77.1-34.5-77.1-80.4c0-45.9,31-80.4,77.1-80.4c45.9,0,77.1,34.5,77.1,80.4
		C411.3,125.1,380,159.6,334.1,159.6z M334.1,16.1c-35,0-57.1,26.8-57.1,63.1c0,36.1,22.1,63.1,57.1,63.1c34.7,0,57.1-27,57.1-63.1
		C391.2,42.9,368.9,16.1,334.1,16.1z"/>
	<path class="st0" d="M583.9,158.2c-5.4,0-9.6-4.2-9.6-9.6V28.9l-52.2,126.3c-0.7,1.9-2.6,3-4.9,3c-1.9,0-3.7-1.2-4.4-3l-52-126.3
		v119.8c0,5.4-4.2,9.6-9.8,9.6c-5.4,0-9.6-4.2-9.6-9.6V15.8c0-8.4,7.2-15.6,16.1-15.6c6.3,0,12.8,3.7,15.4,9.8l44.5,108.3L562.3,10
		c2.6-6.1,8.9-9.8,15.4-9.8c8.9,0,16.1,7.2,16.1,15.6v132.8C593.7,154,589.5,158.2,583.9,158.2z"/>
	<path class="st0" d="M700.9,159.6c-46.1,0-77.1-34.5-77.1-80.4c0-45.9,31-80.4,77.1-80.4c45.9,0,77.1,34.5,77.1,80.4
		C778,125.1,746.8,159.6,700.9,159.6z M700.9,16.1c-35,0-57.1,26.8-57.1,63.1c0,36.1,22.1,63.1,57.1,63.1c34.7,0,57.1-27,57.1-63.1
		C758,42.9,735.6,16.1,700.9,16.1z"/>
	<path class="st0" d="M828.6,159.6c-13.7,0-25.6-3.7-35.9-13.3c-1.9-1.6-2.8-3.7-2.8-6.1c0-4.7,4-9.1,8.6-9.1c1.9,0,3.7,0.5,5.4,1.9
		c6.1,5.4,13.5,9.3,23.5,9.3c19.1,0,31.2-13.3,31.2-32.6V9.3c0-5.1,4.2-9.3,10-9.3c5.1,0,9.3,4.2,9.3,9.3V110
		C878,143.8,856.3,159.6,828.6,159.6z"/>
	<path class="st0" d="M977.7,159.6c-42.2,0-63.4-24.9-63.4-63.1V9.3c0-5.1,4.2-9.3,10-9.3c5.1,0,9.3,4.2,9.3,9.3V96
		c0,28.4,15.4,46.4,44,46.4s44-17.9,44-46.4V9.3c0-5.1,4.2-9.3,10-9.3c5.1,0,9.3,4.2,9.3,9.3v86.9
		C1041.1,134.9,1019.9,159.6,977.7,159.6z"/>
</g>
</svg>
